<?xml version="1.0" encoding="UTF-8" standalone="no"?>
<svg width="51px" height="51px" viewBox="0 0 51 51" version="1.1" xmlns="http://www.w3.org/2000/svg" xmlns:xlink="http://www.w3.org/1999/xlink" xmlns:sketch="http://www.bohemiancoding.com/sketch/ns">
    <!-- Generator: Sketch 3.1.1 (8761) - http://www.bohemiancoding.com/sketch -->
    <title>UAIC_logo2</title>
    <desc>Created with Sketch.</desc>
    <defs></defs>
    <g id="Page-1" stroke="none" stroke-width="1" fill="none" fill-rule="evenodd" sketch:type="MSPage">
        <g id="UAIC_logo2" sketch:type="MSLayerGroup">
            <g id="Page-1" sketch:type="MSShapeGroup">
                <g id="UAIC_logo">
                    <g id="Group">
                        <circle id="Oval" fill="#B32317" cx="25.0147239" cy="25.0147239" r="25.0147239"></circle>
                        <g transform="translate(5.214724, 0.920245)" fill="#FFFFFF">
                            <g id="Shape" transform="translate(0.000000, 19.631902)">
                                <path d="M-0.11993865,10.0223926 L3.07147239,10.0223926 L2.75245399,6.60214724 L0.119631902,6.60214724 L-0.11993865,10.0223926 L-0.11993865,10.0223926 Z"></path>
                                <path d="M0.461042945,6.67331288 L2.4904908,6.67331288 L2.28742331,3.35552147 L0.613496933,3.35552147 L0.461042945,6.67331288 L0.461042945,6.67331288 Z"></path>
                                <path d="M1.03558282,3.37546012 L1.91595092,3.37546012 L1.82760736,0.0579754601 L1.10153374,0.0579754601 L1.03558282,3.37546012 L1.03558282,3.37546012 Z"></path>
                            </g>
                            <g id="Shape" transform="translate(36.809816, 19.631902)">
                                <path d="M-0.0570552147,10.0223926 L3.13466258,10.0223926 L2.81533742,6.60214724 L0.182515337,6.60214724 L-0.0570552147,10.0223926 L-0.0570552147,10.0223926 Z"></path>
                                <path d="M0.52392638,6.67331288 L2.55337423,6.67331288 L2.3506135,3.35552147 L0.67607362,3.35552147 L0.52392638,6.67331288 L0.52392638,6.67331288 Z"></path>
                                <path d="M1.09815951,3.37546012 L1.9791411,3.37546012 L1.89079755,0.0579754601 L1.16472393,0.0579754601 L1.09815951,3.37546012 L1.09815951,3.37546012 Z"></path>
                            </g>
                            <g id="Shape" transform="translate(33.128834, 13.190184)">
                                <path d="M-0.063190184,10.0067485 L3.12822086,10.0067485 L2.8095092,6.58680982 L0.17607362,6.58680982 L-0.063190184,10.0067485 L-0.063190184,10.0067485 Z"></path>
                                <path d="M0.51809816,6.65797546 L2.54723926,6.65797546 L2.34447853,3.3404908 L0.66993865,3.3404908 L0.51809816,6.65797546 L0.51809816,6.65797546 Z"></path>
                                <path d="M1.09233129,3.36042945 L1.97300613,3.36042945 L1.88466258,0.0429447853 L1.15858896,0.0429447853 L1.09233129,3.36042945 L1.09233129,3.36042945 Z"></path>
                            </g>
                            <g id="Shape" transform="translate(3.680982, 13.190184)">
                                <path d="M-0.113803681,10.0067485 L3.07760736,10.0067485 L2.75889571,6.58680982 L0.125766871,6.58680982 L-0.113803681,10.0067485 L-0.113803681,10.0067485 Z"></path>
                                <path d="M0.467484663,6.65797546 L2.49662577,6.65797546 L2.29386503,3.3404908 L0.619631902,3.3404908 L0.467484663,6.65797546 L0.467484663,6.65797546 Z"></path>
                                <path d="M1.04171779,3.36042945 L1.92239264,3.36042945 L1.83404908,0.0429447853 L1.10797546,0.0429447853 L1.04171779,3.36042945 L1.04171779,3.36042945 Z"></path>
                            </g>
                            <g id="Shape" transform="translate(5.521472, 24.846626)">
                                <path d="M-0.0849693252,9.8202454 L3.10644172,9.8202454 L2.78742331,6.4 L0.154294479,6.4 L-0.0849693252,9.8202454 L-0.0849693252,9.8202454 Z"></path>
                                <path d="M0.496319018,6.47116564 L2.52515337,6.47116564 L2.32239264,3.15368098 L0.648159509,3.15368098 L0.496319018,6.47116564 L0.496319018,6.47116564 Z"></path>
                                <path d="M1.0702454,3.17361963 L1.95092025,3.17361963 L1.86288344,-0.143865031 L1.13680982,-0.143865031 L1.0702454,3.17361963 L1.0702454,3.17361963 Z"></path>
                            </g>
                            <g id="Shape" transform="translate(30.981595, 24.846626)">
                                <path d="M0.113190184,9.8202454 L3.30429448,9.8202454 L2.98496933,6.4 L0.351840491,6.4 L0.113190184,9.8202454 L0.113190184,9.8202454 Z"></path>
                                <path d="M0.693865031,6.47116564 L2.72269939,6.47116564 L2.5208589,3.15368098 L0.84601227,3.15368098 L0.693865031,6.47116564 L0.693865031,6.47116564 Z"></path>
                                <path d="M1.26809816,3.17361963 L2.14907975,3.17361963 L2.0607362,-0.143865031 L1.33435583,-0.143865031 L1.26809816,3.17361963 L1.26809816,3.17361963 Z"></path>
                            </g>
                            <g id="Shape" transform="translate(7.361963, 9.815951)">
                                <path d="M-0.107361963,9.81288344 L3.08404908,9.81288344 L2.76503067,6.39263804 L0.132208589,6.39263804 L-0.107361963,9.81288344 L-0.107361963,9.81288344 Z"></path>
                                <path d="M0.473619632,6.46380368 L2.50306748,6.46380368 L2.30030675,3.14631902 L0.62607362,3.14631902 L0.473619632,6.46380368 L0.473619632,6.46380368 Z"></path>
                                <path d="M1.04815951,3.16625767 L1.92883436,3.16625767 L1.8404908,-0.151226994 L1.11441718,-0.151226994 L1.04815951,3.16625767 L1.04815951,3.16625767 Z"></path>
                            </g>
                            <g id="Shape" transform="translate(29.447853, 9.815951)">
                                <path d="M-0.0696319018,9.81288344 L3.12177914,9.81288344 L2.80306748,6.39263804 L0.16993865,6.39263804 L-0.0696319018,9.81288344 L-0.0696319018,9.81288344 Z"></path>
                                <path d="M0.511656442,6.46380368 L2.5404908,6.46380368 L2.33773006,3.14631902 L0.663496933,3.14631902 L0.511656442,6.46380368 L0.511656442,6.46380368 Z"></path>
                                <path d="M1.08588957,3.16625767 L1.96656442,3.16625767 L1.87791411,-0.151226994 L1.15214724,-0.151226994 L1.08588957,3.16625767 L1.08588957,3.16625767 Z"></path>
                            </g>
                            <g id="Shape" transform="translate(25.766871, 6.441718)">
                                <path d="M-0.0757668712,10.0435583 L3.11564417,10.0435583 L2.79662577,6.62361963 L0.163496933,6.62361963 L-0.0757668712,10.0435583 L-0.0757668712,10.0435583 Z"></path>
                                <path d="M0.505214724,6.69447853 L2.53466258,6.69447853 L2.33190184,3.37699387 L0.657361963,3.37699387 L0.505214724,6.69447853 L0.505214724,6.69447853 Z"></path>
                                <path d="M1.0797546,3.39693252 L1.96042945,3.39693252 L1.87239264,0.0794478528 L1.14570552,0.0794478528 L1.0797546,3.39693252 L1.0797546,3.39693252 Z"></path>
                            </g>
                            <g id="Shape" transform="translate(11.042945, 6.441718)">
                                <path d="M-0.101226994,10.0435583 L3.09018405,10.0435583 L2.77116564,6.62361963 L0.13803681,6.62361963 L-0.101226994,10.0435583 L-0.101226994,10.0435583 Z"></path>
                                <path d="M0.48006135,6.69447853 L2.50920245,6.69447853 L2.30644172,3.37699387 L0.63190184,3.37699387 L0.48006135,6.69447853 L0.48006135,6.69447853 Z"></path>
                                <path d="M1.05429448,3.39693252 L1.93496933,3.39693252 L1.84662577,0.0794478528 L1.12055215,0.0794478528 L1.05429448,3.39693252 L1.05429448,3.39693252 Z"></path>
                            </g>
                            <g id="Shape" transform="translate(14.723926, 3.067485)">
                                <path d="M-0.0950920245,10.0193252 L3.09662577,10.0193252 L2.77760736,6.5993865 L0.144478528,6.5993865 L-0.0950920245,10.0193252 L-0.0950920245,10.0193252 Z"></path>
                                <path d="M0.486196319,6.6702454 L2.51533742,6.6702454 L2.31257669,3.35276074 L0.638343558,3.35276074 L0.486196319,6.6702454 L0.486196319,6.6702454 Z"></path>
                                <path d="M1.06042945,3.37269939 L1.94141104,3.37269939 L1.85306748,0.0552147239 L1.12668712,0.0552147239 L1.06042945,3.37269939 L1.06042945,3.37269939 Z"></path>
                            </g>
                            <g id="Shape" transform="translate(22.085890, 3.067485)">
                                <path d="M-0.0825153374,10.0193252 L3.10920245,10.0193252 L2.7904908,6.5993865 L0.157055215,6.5993865 L-0.0825153374,10.0193252 L-0.0825153374,10.0193252 Z"></path>
                                <path d="M0.499079755,6.6702454 L2.52791411,6.6702454 L2.32515337,3.35276074 L0.650613497,3.35276074 L0.499079755,6.6702454 L0.499079755,6.6702454 Z"></path>
                                <path d="M1.07300613,3.37269939 L1.95368098,3.37269939 L1.86564417,0.0552147239 L1.13957055,0.0552147239 L1.07300613,3.37269939 L1.07300613,3.37269939 Z"></path>
                            </g>
                            <g id="Shape" transform="translate(18.404908, 0.000000)">
                                <path d="M-0.0886503067,9.85828221 L3.10306748,9.85828221 L2.78404908,6.43834356 L0.150613497,6.43834356 L-0.0886503067,9.85828221 L-0.0886503067,9.85828221 Z"></path>
                                <path d="M0.492638037,6.5095092 L2.52177914,6.5095092 L2.3190184,3.19202454 L0.644785276,3.19202454 L0.492638037,6.5095092 L0.492638037,6.5095092 Z"></path>
                                <path d="M1.06687117,3.21196319 L1.94785276,3.21196319 L1.8595092,-0.105521472 L1.13312883,-0.105521472 L1.06687117,3.21196319 L1.06687117,3.21196319 Z"></path>
                            </g>
                            <g transform="translate(11.349693, 18.711656)">
                                <g transform="translate(0.000000, 3.067485)">
                                    <g>
                                        <rect id="Rectangle-path" x="0" y="9.50920245" width="1.61319018" height="3.36472393"></rect>
                                        <rect id="Rectangle-path" x="0.920245399" y="6.44171779" width="1.61349693" height="3.31871166"></rect>
                                        <rect id="Rectangle-path" x="1.8404908" y="3.37423313" width="1.61288344" height="3.08773006"></rect>
                                        <path d="M2.70797546,-0.0708588957 L3.30674847,-0.0708588957 L3.30674847,3.38619632 L2.33895706,3.38619632 L2.70797546,-0.0708588957 L2.70797546,-0.0708588957 Z" id="Shape"></path>
                                    </g>
                                    <g transform="translate(0.000000, 9.509202)">
                                        <rect id="Rectangle-path" x="0" y="0" width="1.61319018" height="3.36411043"></rect>
                                        <rect id="Rectangle-path" x="0.920245399" y="3.37423313" width="1.61349693" height="3.31871166"></rect>
                                        <rect id="Rectangle-path" x="1.8404908" y="6.74846626" width="1.61288344" height="3.08773006"></rect>
                                        <path d="M2.70797546,13.047546 L3.30674847,13.047546 L3.30674847,9.59079755 L2.33895706,9.59079755 L2.70797546,13.047546 L2.70797546,13.047546 Z" id="Shape"></path>
                                    </g>
                                </g>
                                <g transform="translate(3.680982, 0.000000)">
                                    <g transform="translate(0.920245, 0.000000)">
                                        <rect id="Rectangle-path" x="0" y="9.20245399" width="1.68343558" height="3.26871166"></rect>
                                        <rect id="Rectangle-path" x="0.920245399" y="6.13496933" width="1.63711656" height="3.22484663"></rect>
                                        <rect id="Rectangle-path" x="1.53374233" y="3.06748466" width="1.59110429" height="3.0006135"></rect>
                                        <path d="M2.55674847,-0.045398773 L3.13067485,-0.045398773 L3.13067485,3.31349693 L2.20368098,3.31349693 L2.55674847,-0.045398773 L2.55674847,-0.045398773 Z" id="Shape"></path>
                                    </g>
                                    <rect id="Rectangle-path" x="0" y="12.5766871" width="1.68312883" height="3.54570552"></rect>
                                    <g transform="translate(0.920245, 15.950920)">
                                        <rect id="Rectangle-path" x="0" y="0" width="1.68343558" height="3.2690184"></rect>
                                        <rect id="Rectangle-path" x="0.920245399" y="3.06748466" width="1.63711656" height="3.22453988"></rect>
                                        <rect id="Rectangle-path" x="1.53374233" y="6.44171779" width="1.59110429" height="3.00092025"></rect>
                                        <path d="M2.55705521,12.6088957 L3.13067485,12.6088957 L3.13067485,9.25030675 L2.20398773,9.25030675 L2.55705521,12.6088957 L2.55705521,12.6088957 Z" id="Shape"></path>
                                    </g>
                                </g>
                            </g>
                            <g transform="translate(20.858896, 18.711656)">
                                <g transform="translate(4.294479, 2.760736)">
                                    <g transform="translate(0.000000, 9.815951)">
                                        <rect id="Rectangle-path" x="1.53374233" y="0" width="1.61380368" height="3.36441718"></rect>
                                        <rect id="Rectangle-path" x="0.613496933" y="3.37423313" width="1.61380368" height="3.31871166"></rect>
                                        <rect id="Rectangle-path" x="0" y="6.44171779" width="1.61380368" height="3.08773006"></rect>
                                        <path d="M0.600613497,12.941411 L0.000920245399,12.941411 L0.000920245399,9.48466258 L0.969325153,9.48466258 L0.600613497,12.941411 L0.600613497,12.941411 Z" id="Shape"></path>
                                    </g>
                                    <g>
                                        <rect id="Rectangle-path" x="1.53374233" y="9.81595092" width="1.61380368" height="3.36411043"></rect>
                                        <rect id="Rectangle-path" x="0.613496933" y="6.44171779" width="1.61380368" height="3.31840491"></rect>
                                        <rect id="Rectangle-path" x="0" y="3.37423313" width="1.61380368" height="3.08834356"></rect>
                                        <path d="M0.600613497,0.129447853 L0.000920245399,0.129447853 L0.000920245399,3.58650307 L0.969325153,3.58650307 L0.600613497,0.129447853 L0.600613497,0.129447853 Z" id="Shape"></path>
                                    </g>
                                </g>
                                <g>
                                    <g transform="translate(0.000000, 15.950920)">
                                        <rect id="Rectangle-path" x="1.22699387" y="0" width="1.68312883" height="3.26932515"></rect>
                                        <rect id="Rectangle-path" x="0.613496933" y="3.06748466" width="1.63742331" height="3.22453988"></rect>
                                        <rect id="Rectangle-path" x="0" y="6.44171779" width="1.59110429" height="3.00092025"></rect>
                                        <path d="M0.444478528,12.6088957 L-0.128834356,12.6088957 L-0.128834356,9.25030675 L0.797546012,9.25030675 L0.444478528,12.6088957 L0.444478528,12.6088957 Z" id="Shape"></path>
                                    </g>
                                    <rect id="Rectangle-path" x="2.14723926" y="12.5766871" width="1.68312883" height="3.54539877"></rect>
                                    <g>
                                        <rect id="Rectangle-path" x="1.22699387" y="9.20245399" width="1.68312883" height="3.26871166"></rect>
                                        <rect id="Rectangle-path" x="0.613496933" y="6.13496933" width="1.63711656" height="3.22484663"></rect>
                                        <rect id="Rectangle-path" x="0" y="3.06748466" width="1.59141104" height="3.0006135"></rect>
                                        <path d="M0.444478528,-0.045398773 L-0.129447853,-0.045398773 L-0.129447853,3.31349693 L0.797546012,3.31349693 L0.444478528,-0.045398773 L0.444478528,-0.045398773 Z" id="Shape"></path>
                                    </g>
                                </g>
                            </g>
                        </g>
                    </g>
                </g>
            </g>
        </g>
    </g>
</svg>