<?xml version="1.0" encoding="UTF-8" standalone="no"?>
<svg width="164px" height="164px" viewBox="0 0 164 164" version="1.1" xmlns="http://www.w3.org/2000/svg" xmlns:xlink="http://www.w3.org/1999/xlink" xmlns:sketch="http://www.bohemiancoding.com/sketch/ns">
    <!-- Generator: Sketch 3.1.1 (8761) - http://www.bohemiancoding.com/sketch -->
    <title>UAIC_logo</title>
    <desc>Created with Sketch.</desc>
    <defs></defs>
    <g id="Page-1" stroke="none" stroke-width="1" fill="none" fill-rule="evenodd" sketch:type="MSPage">
        <g id="UAIC_logo" sketch:type="MSLayerGroup">
            <g id="Group" sketch:type="MSShapeGroup">
                <circle id="Oval" fill="#B32317" cx="81.548" cy="81.548" r="81.548"></circle>
                <g transform="translate(17.000000, 3.000000)" fill="#FFFFFF">
                    <g transform="translate(0.000000, 64.000000)" id="Shape">
                        <path d="M-0.391,32.673 L10.013,32.673 L8.973,21.523 L0.39,21.523 L-0.391,32.673 Z"></path>
                        <path d="M1.503,21.755 L8.119,21.755 L7.457,10.939 L2,10.939 L1.503,21.755 Z"></path>
                        <path d="M3.376,11.004 L6.246,11.004 L5.958,0.189 L3.591,0.189 L3.376,11.004 Z"></path>
                    </g>
                    <g transform="translate(120.000000, 64.000000)" id="Shape">
                        <path d="M-0.186,32.673 L10.219,32.673 L9.178,21.523 L0.595,21.523 L-0.186,32.673 Z"></path>
                        <path d="M1.708,21.755 L8.324,21.755 L7.663,10.939 L2.204,10.939 L1.708,21.755 Z"></path>
                        <path d="M3.58,11.004 L6.452,11.004 L6.164,0.189 L3.797,0.189 L3.58,11.004 Z"></path>
                    </g>
                    <g transform="translate(108.000000, 43.000000)" id="Shape">
                        <path d="M-0.206,32.622 L10.198,32.622 L9.159,21.473 L0.574,21.473 L-0.206,32.622 Z"></path>
                        <path d="M1.689,21.705 L8.304,21.705 L7.643,10.89 L2.184,10.89 L1.689,21.705 Z"></path>
                        <path d="M3.561,10.955 L6.432,10.955 L6.144,0.14 L3.777,0.14 L3.561,10.955 Z"></path>
                    </g>
                    <g transform="translate(12.000000, 43.000000)" id="Shape">
                        <path d="M-0.371,32.622 L10.033,32.622 L8.994,21.473 L0.41,21.473 L-0.371,32.622 Z"></path>
                        <path d="M1.524,21.705 L8.139,21.705 L7.478,10.89 L2.02,10.89 L1.524,21.705 Z"></path>
                        <path d="M3.396,10.955 L6.267,10.955 L5.979,0.14 L3.612,0.14 L3.396,10.955 Z"></path>
                    </g>
                    <g transform="translate(18.000000, 81.000000)" id="Shape">
                        <path d="M-0.277,32.014 L10.127,32.014 L9.087,20.864 L0.503,20.864 L-0.277,32.014 Z"></path>
                        <path d="M1.618,21.096 L8.232,21.096 L7.571,10.281 L2.113,10.281 L1.618,21.096 Z"></path>
                        <path d="M3.489,10.346 L6.36,10.346 L6.073,-0.469 L3.706,-0.469 L3.489,10.346 Z"></path>
                    </g>
                    <g transform="translate(101.000000, 81.000000)" id="Shape">
                        <path d="M0.369,32.014 L10.772,32.014 L9.731,20.864 L1.147,20.864 L0.369,32.014 Z"></path>
                        <path d="M2.262,21.096 L8.876,21.096 L8.218,10.281 L2.758,10.281 L2.262,21.096 Z"></path>
                        <path d="M4.134,10.346 L7.006,10.346 L6.718,-0.469 L4.35,-0.469 L4.134,10.346 Z"></path>
                    </g>
                    <g transform="translate(24.000000, 32.000000)" id="Shape">
                        <path d="M-0.35,31.99 L10.054,31.99 L9.014,20.84 L0.431,20.84 L-0.35,31.99 Z"></path>
                        <path d="M1.544,21.072 L8.16,21.072 L7.499,10.257 L2.041,10.257 L1.544,21.072 Z"></path>
                        <path d="M3.417,10.322 L6.288,10.322 L6,-0.493 L3.633,-0.493 L3.417,10.322 Z"></path>
                    </g>
                    <g transform="translate(96.000000, 32.000000)" id="Shape">
                        <path d="M-0.227,31.99 L10.177,31.99 L9.138,20.84 L0.554,20.84 L-0.227,31.99 Z"></path>
                        <path d="M1.668,21.072 L8.282,21.072 L7.621,10.257 L2.163,10.257 L1.668,21.072 Z"></path>
                        <path d="M3.54,10.322 L6.411,10.322 L6.122,-0.493 L3.756,-0.493 L3.54,10.322 Z"></path>
                    </g>
                    <g transform="translate(84.000000, 21.000000)" id="Shape">
                        <path d="M-0.247,32.742 L10.157,32.742 L9.117,21.593 L0.533,21.593 L-0.247,32.742 Z"></path>
                        <path d="M1.647,21.824 L8.263,21.824 L7.602,11.009 L2.143,11.009 L1.647,21.824 Z"></path>
                        <path d="M3.52,11.074 L6.391,11.074 L6.104,0.259 L3.735,0.259 L3.52,11.074 Z"></path>
                    </g>
                    <g transform="translate(36.000000, 21.000000)" id="Shape">
                        <path d="M-0.33,32.742 L10.074,32.742 L9.034,21.593 L0.45,21.593 L-0.33,32.742 Z"></path>
                        <path d="M1.565,21.824 L8.18,21.824 L7.519,11.009 L2.06,11.009 L1.565,21.824 Z"></path>
                        <path d="M3.437,11.074 L6.308,11.074 L6.02,0.259 L3.653,0.259 L3.437,11.074 Z"></path>
                    </g>
                    <g transform="translate(48.000000, 10.000000)" id="Shape">
                        <path d="M-0.31,32.663 L10.095,32.663 L9.055,21.514 L0.471,21.514 L-0.31,32.663 Z"></path>
                        <path d="M1.585,21.745 L8.2,21.745 L7.539,10.93 L2.081,10.93 L1.585,21.745 Z"></path>
                        <path d="M3.457,10.995 L6.329,10.995 L6.041,0.18 L3.673,0.18 L3.457,10.995 Z"></path>
                    </g>
                    <g transform="translate(72.000000, 10.000000)" id="Shape">
                        <path d="M-0.269,32.663 L10.136,32.663 L9.097,21.514 L0.512,21.514 L-0.269,32.663 Z"></path>
                        <path d="M1.627,21.745 L8.241,21.745 L7.58,10.93 L2.121,10.93 L1.627,21.745 Z"></path>
                        <path d="M3.498,10.995 L6.369,10.995 L6.082,0.18 L3.715,0.18 L3.498,10.995 Z"></path>
                    </g>
                    <g transform="translate(60.000000, 0.000000)" id="Shape">
                        <path d="M-0.289,32.138 L10.116,32.138 L9.076,20.989 L0.491,20.989 L-0.289,32.138 Z"></path>
                        <path d="M1.606,21.221 L8.221,21.221 L7.56,10.406 L2.102,10.406 L1.606,21.221 Z"></path>
                        <path d="M3.478,10.471 L6.35,10.471 L6.062,-0.344 L3.694,-0.344 L3.478,10.471 Z"></path>
                    </g>
                    <g transform="translate(37.000000, 61.000000)">
                        <g transform="translate(0.000000, 10.000000)">
                            <g>
                                <rect id="Rectangle-path" x="0" y="31" width="5.259" height="10.969"></rect>
                                <rect id="Rectangle-path" x="3" y="21" width="5.26" height="10.819"></rect>
                                <rect id="Rectangle-path" x="6" y="11" width="5.258" height="10.066"></rect>
                                <path d="M8.828,-0.231 L10.78,-0.231 L10.78,11.039 L7.625,11.039 L8.828,-0.231 Z" id="Shape"></path>
                            </g>
                            <g transform="translate(0.000000, 31.000000)">
                                <rect id="Rectangle-path" x="0" y="0" width="5.259" height="10.967"></rect>
                                <rect id="Rectangle-path" x="3" y="11" width="5.26" height="10.819"></rect>
                                <rect id="Rectangle-path" x="6" y="22" width="5.258" height="10.066"></rect>
                                <path d="M8.828,42.535 L10.78,42.535 L10.78,31.266 L7.625,31.266 L8.828,42.535 Z" id="Shape"></path>
                            </g>
                        </g>
                        <g transform="translate(12.000000, 0.000000)">
                            <g transform="translate(3.000000, 0.000000)">
                                <rect id="Rectangle-path" x="0" y="30" width="5.488" height="10.656"></rect>
                                <rect id="Rectangle-path" x="3" y="20" width="5.337" height="10.513"></rect>
                                <rect id="Rectangle-path" x="5" y="10" width="5.187" height="9.782"></rect>
                                <path d="M8.335,-0.148 L10.206,-0.148 L10.206,10.802 L7.184,10.802 L8.335,-0.148 Z" id="Shape"></path>
                            </g>
                            <rect id="Rectangle-path" x="0" y="41" width="5.487" height="11.559"></rect>
                            <g transform="translate(3.000000, 52.000000)">
                                <rect id="Rectangle-path" x="0" y="0" width="5.488" height="10.657"></rect>
                                <rect id="Rectangle-path" x="3" y="10" width="5.337" height="10.512"></rect>
                                <rect id="Rectangle-path" x="5" y="21" width="5.187" height="9.783"></rect>
                                <path d="M8.336,41.105 L10.206,41.105 L10.206,30.156 L7.185,30.156 L8.336,41.105 Z" id="Shape"></path>
                            </g>
                        </g>
                    </g>
                    <g transform="translate(68.000000, 61.000000)">
                        <g transform="translate(14.000000, 9.000000)">
                            <g transform="translate(0.000000, 32.000000)">
                                <rect id="Rectangle-path" x="5" y="0" width="5.261" height="10.968"></rect>
                                <rect id="Rectangle-path" x="2" y="11" width="5.261" height="10.819"></rect>
                                <rect id="Rectangle-path" x="0" y="21" width="5.261" height="10.066"></rect>
                                <path d="M1.958,42.189 L0.003,42.189 L0.003,30.92 L3.16,30.92 L1.958,42.189 Z" id="Shape"></path>
                            </g>
                            <g>
                                <rect id="Rectangle-path" x="5" y="32" width="5.261" height="10.967"></rect>
                                <rect id="Rectangle-path" x="2" y="21" width="5.261" height="10.818"></rect>
                                <rect id="Rectangle-path" x="0" y="11" width="5.261" height="10.068"></rect>
                                <path d="M1.958,0.422 L0.003,0.422 L0.003,11.692 L3.16,11.692 L1.958,0.422 Z" id="Shape"></path>
                            </g>
                        </g>
                        <g>
                            <g transform="translate(0.000000, 52.000000)">
                                <rect id="Rectangle-path" x="4" y="0" width="5.487" height="10.658"></rect>
                                <rect id="Rectangle-path" x="2" y="10" width="5.338" height="10.512"></rect>
                                <rect id="Rectangle-path" x="0" y="21" width="5.187" height="9.783"></rect>
                                <path d="M1.449,41.105 L-0.42,41.105 L-0.42,30.156 L2.6,30.156 L1.449,41.105 Z" id="Shape"></path>
                            </g>
                            <rect id="Rectangle-path" x="7" y="41" width="5.487" height="11.558"></rect>
                            <g>
                                <rect id="Rectangle-path" x="4" y="30" width="5.487" height="10.656"></rect>
                                <rect id="Rectangle-path" x="2" y="20" width="5.337" height="10.513"></rect>
                                <rect id="Rectangle-path" x="0" y="10" width="5.188" height="9.782"></rect>
                                <path d="M1.449,-0.148 L-0.422,-0.148 L-0.422,10.802 L2.6,10.802 L1.449,-0.148 Z" id="Shape"></path>
                            </g>
                        </g>
                    </g>
                </g>
            </g>
        </g>
    </g>
</svg>